# Blender v2.78 (sub 0) OBJ File: ''
# www.blender.org
mtllib cubo2.mtl
o cubo
v 1.000000 1.000000 -1.000000
v 1.000000 -1.000000 -1.000000
v -1.000000 -1.000000 -1.000000
v -1.000000 1.000000 -1.000000
v -1.000000 -1.000000 1.000000
v -1.395478 1.174766 1.515091
v 1.000000 -1.000000 1.000000
v 0.999999 1.000000 1.000001
vt 0.7486 0.7504
vt 0.7493 0.5013
vt 0.9991 0.5011
vt 0.9995 0.7504
vt 0.2505 0.5007
vt 0.2497 0.7497
vt 0.0011 0.7504
vt 0.0015 0.5000
vt 0.4994 0.5002
vt 0.5001 0.7502
vt 0.7484 0.9982
vt 0.5002 0.9987
vt 0.4990 0.2504
vt 0.7490 0.2509
vn 0.0000 0.0000 -1.0000
vn -0.9933 -0.0820 -0.0820
vn -0.9791 -0.1439 -0.1439
vn -0.9942 -0.0759 -0.0759
vn -1.0000 0.0000 0.0000
vn 0.0000 -0.0000 1.0000
vn 0.1027 -0.1027 0.9894
vn 0.1082 -0.1082 0.9882
vn 0.1928 -0.1928 0.9621
vn 1.0000 0.0000 0.0000
vn 0.0000 1.0000 0.0000
vn 0.0327 0.9989 -0.0327
vn 0.0335 0.9989 -0.0335
vn 0.0598 0.9964 -0.0598
vn 0.0000 -1.0000 -0.0000
usemtl Material_ray.png
s 1
f 1/1/1 2/2/1 3/3/1
f 1/1/1 3/3/1 4/4/1
f 5/5/2 6/6/3 4/7/4
f 5/5/2 4/7/4 3/8/5
f 7/9/6 8/10/7 5/5/8
f 8/10/7 6/6/9 5/5/8
f 2/2/10 1/1/10 7/9/10
f 1/1/10 8/10/10 7/9/10
f 1/1/11 4/11/12 8/10/13
f 4/11/12 6/12/14 8/10/13
f 2/2/15 7/9/15 5/13/15
f 2/2/15 5/13/15 3/14/15
