# Blender v2.78 (sub 0) OBJ File: ''
# www.blender.org
o cubo
v 1.000000 1.000000 -1.000000
v 1.000000 -1.000000 -1.000000
v -1.000000 -1.000000 -1.000000
v -1.000000 1.000000 -1.000000
v -1.000000 -1.000000 1.000000
v -1.012839 0.888703 3.118773
v 1.000000 -1.000000 1.000000
v 0.999999 1.000000 1.000001
vt 0.7486 0.7504
vt 0.7493 0.5013
vt 0.9991 0.5011
vt 0.9995 0.7504
vt 0.2505 0.5007
vt 0.2497 0.7497
vt 0.0011 0.7504
vt 0.0015 0.5000
vt 0.4994 0.5002
vt 0.5001 0.7502
vt 0.7484 0.9982
vt 0.5002 0.9987
vt 0.4990 0.2504
vt 0.7490 0.2509
vn 0.0000 0.0000 -1.0000
vn -1.0000 -0.0022 -0.0022
vn -1.0000 -0.0032 -0.0032
vn -1.0000 -0.0016 -0.0016
vn -1.0000 0.0000 0.0000
vn 0.0000 -0.0000 1.0000
vn 0.3857 -0.3857 0.8381
vn 0.3936 -0.3936 0.8307
vn 0.5970 -0.5970 0.5358
vn 1.0000 0.0000 0.0000
vn 0.0000 1.0000 0.0000
vn -0.0135 0.9998 0.0135
vn -0.0180 0.9997 0.0180
vn -0.0269 0.9993 0.0269
vn 0.0000 -1.0000 -0.0000
s 1
f 1/1/1 2/2/1 3/3/1
f 1/1/1 3/3/1 4/4/1
f 5/5/2 6/6/3 4/7/4
f 5/5/2 4/7/4 3/8/5
f 7/9/6 8/10/7 5/5/8
f 8/10/7 6/6/9 5/5/8
f 2/2/10 1/1/10 7/9/10
f 1/1/10 8/10/10 7/9/10
f 1/1/11 4/11/12 8/10/13
f 4/11/12 6/12/14 8/10/13
f 2/2/15 7/9/15 5/13/15
f 2/2/15 5/13/15 3/14/15
